<svg width="70" height="70" viewBox="0 0 70 70" fill="none" xmlns="http://www.w3.org/2000/svg">
<circle cx="35" cy="35" r="35" fill="#2A4181"/>
<path d="M15.6641 16.3906L39.8047 42.0781V25.5781C39.8047 24.25 39.7891 23.0938 39.7578 22.1094C39.7266 21.1094 39.6797 20.25 39.6172 19.5312C39.5547 18.7969 39.4766 18.1875 39.3828 17.7031C39.3047 17.2188 39.2188 16.8125 39.125 16.4844V16.3906H43.2969V16.4844C43.2031 16.8125 43.1172 17.2188 43.0391 17.7031C42.9609 18.1875 42.8906 18.7969 42.8281 19.5312C42.7656 20.25 42.7188 21.1094 42.6875 22.1094C42.6562 23.0938 42.6406 24.25 42.6406 25.5781V50.4688H41.8203L17.6797 24.8047V40.8359C17.6797 42.1641 17.6953 43.3281 17.7266 44.3281C17.7578 45.3125 17.8047 46.1641 17.8672 46.8828C17.9297 47.6016 18 48.2031 18.0781 48.6875C18.1562 49.1719 18.2422 49.5781 18.3359 49.9062V50H14.1641V49.9062C14.2578 49.5781 14.3438 49.1719 14.4219 48.6875C14.5156 48.2031 14.5938 47.6016 14.6562 46.8828C14.7188 46.1641 14.7656 45.3125 14.7969 44.3281C14.8281 43.3281 14.8438 42.1641 14.8438 40.8359V25.5781C14.8438 24.25 14.8281 23.0938 14.7969 22.1094C14.7656 21.1094 14.7188 20.25 14.6562 19.5312C14.5938 18.7969 14.5156 18.1875 14.4219 17.7031C14.3438 17.2188 14.2578 16.8125 14.1641 16.4844V16.3906H15.6641ZM54.5938 45.1484C54.5938 47.2578 54.375 49.0859 53.9375 50.6328C53.5156 52.1797 52.9141 53.5469 52.1328 54.7344C51.3672 55.9375 50.4531 57.0078 49.3906 57.9453C48.3438 58.8828 47.1953 59.8047 45.9453 60.7109L45.5234 60.125C46.6016 59.1406 47.4531 58.1172 48.0781 57.0547C48.7188 55.9922 49.2031 54.8516 49.5312 53.6328C49.875 52.4297 50.0938 51.1328 50.1875 49.7422C50.2812 48.3359 50.3281 46.8047 50.3281 45.1484V25.5781C50.3281 24.25 50.3125 23.0938 50.2812 22.1094C50.25 21.1094 50.2031 20.25 50.1406 19.5312C50.0781 18.7969 50 18.1875 49.9062 17.7031C49.8281 17.2188 49.7422 16.8125 49.6484 16.4844V16.3906H55.2734V16.4844C55.1797 16.8125 55.0859 17.2188 54.9922 17.7031C54.9141 18.1875 54.8438 18.7969 54.7812 19.5312C54.7188 20.25 54.6719 21.1094 54.6406 22.1094C54.6094 23.0938 54.5938 24.25 54.5938 25.5781V45.1484Z" fill="#FEFEFE"/>
</svg>
